{"title":"The Martian 2015 BRRip x264 AAC-SSN","uid":13128334,"size":1715684800,"categoryP":"video","categoryS":"movies","magnet":"?xt=urn:btih:fc7f76e20a3c0bb0f7483bbf15df6beb35652a04&amp;dn=The+Martian+2015+BRRip+x264+AAC-SSN&amp;tr=udp%3A%2F%2Ftracker.leechers-paradise.org%3A6969&amp;tr=udp%3A%2F%2Fzer0day.ch%3A1337&amp;tr=udp%3A%2F%2Fopen.demonii.com%3A1337&amp;tr=udp%3A%2F%2Ftracker.coppersurfer.tk%3A6969&amp;tr=udp%3A%2F%2Fexodus.desync.com%3A6969","seeders":1,"leechers":0,"uploader":"somespirit","files":3,"time":1451813368,"description":"IMDB:  http://www.imdb.com/title/tt3659388\r\n\r\n Source: The.Martian.2015.720p.BluRay.x264-SPARKS\r\n\r\n Subtitles: English for foreign parts\r\n\r\n\r\n\r\n General\r\n Complete name                            : The Martian 2015 x264 AAC-SSN.mkv\r\n Format                                   : Matroska\r\n Format version                           : Version 4 / Version 2\r\n File size                                : 1.60 GiB\r\n Duration                                 : 2h 21mn\r\n Overall bit rate                         : 1 615 Kbps\r\n Encoded date                             : UTC 2015-12-30 07:14:27\r\n Writing application                      : mkvmerge v8.2.0 ('World of Adventure') 64bit\r\n Writing library                          : libebml v1.3.1 + libmatroska v1.4.2\r\n\r\n Video\r\n ID                                       : 1\r\n Format                                   : AVC\r\n Format/Info                              : Advanced Video Codec\r\n Format profile                           :   \r\n Format settings, CABAC                   : Yes\r\n Format settings, ReFrames                : 5 frames\r\n Codec ID                                 : V_MPEG4/ISO/AVC\r\n Duration                                 : 2h 21mn\r\n Bit rate                                 : 1 282 Kbps\r\n Width                                    : 900 pixels\r\n Height                                   : 376 pixels\r\n Display aspect ratio                     : 2.40:1\r\n Frame rate mode                          : Constant\r\n Frame rate                               : 23.976 (24000/1001) fps\r\n Color space                              : YUV\r\n Chroma subsampling                       : 4:2:0\r\n Bit depth                                : 8 bits\r\n Scan type                                : Progressive\r\n Bits/(Pixel*Frame)                       : 0.190\r\n Stream size                              : 1.27 GiB (79%)\r\n Writing library                          : x264 core 148 r2638 7599210\r\n Language                                 : English\r\n Default                                  : Yes\r\n Forced                                   : No\r\n\r\n Audio\r\n ID                                       : 2\r\n Format                                   : AAC\r\n Format/Info                              : Advanced Audio Codec\r\n Format profile                           : LC\r\n Codec ID                                 : A_AAC\r\n Duration                                 : 2h 21mn\r\n Bit rate                                 : 331 Kbps\r\n Channel(s)                               : 6 channels\r\n Channel positions                        : Front: L C R, Side: L R, LFE\r\n Sampling rate                            : 32.0 KHz\r\n Frame rate                               : 31.250 fps (1024 spf)\r\n Compression mode                         : Lossy\r\n Stream size                              : 335 MiB (20%)\r\n Default                                  : Yes\r\n Forced                                   : No\r\n\r\n \nhttp://lookpic.com/O/i2/1135/pl2DuH3P.png\r\n \nhttp://lookpic.com/O/i2/1573/BCgbIKKM.png\r\n \nhttp://lookpic.com/O/i2/1647/KUMubBSQ.png","torrent":{"xt":"urn:btih:fc7f76e20a3c0bb0f7483bbf15df6beb35652a04","amp;dn":"The+Martian+2015+BRRip+x264+AAC-SSN","amp;tr":["udp%3A%2F%2Ftracker.leechers-paradise.org%3A6969","udp%3A%2F%2Fzer0day.ch%3A1337","udp%3A%2F%2Fopen.demonii.com%3A1337","udp%3A%2F%2Ftracker.coppersurfer.tk%3A6969","udp%3A%2F%2Fexodus.desync.com%3A6969"],"infoHash":"fc7f76e20a3c0bb0f7483bbf15df6beb35652a04","infoHashBuffer":{"type":"Buffer","data":[252,127,118,226,10,60,11,176,247,72,59,191,21,223,107,235,53,101,42,4]},"announce":[],"urlList":[]}}